<?xml version="1.0" standalone="no"?>
<!DOCTYPE svg PUBLIC "-//W3C//DTD SVG 20010904//EN"
 "http://www.w3.org/TR/2001/REC-SVG-20010904/DTD/svg10.dtd">
<svg version="1.0" xmlns="http://www.w3.org/2000/svg"
 width="309.000000pt" height="137.000000pt" viewBox="0 0 309.000000 137.000000"
 preserveAspectRatio="xMidYMid meet">

<g transform="translate(0.000000,137.000000) scale(0.100000,-0.100000)"
fill="#000000" stroke="none">
<path d="M482 1189 c-80 -14 -162 -45 -220 -86 -271 -186 -303 -576 -66 -803
169 -163 426 -193 624 -74 91 54 112 80 91 113 -7 11 -16 7 -45 -20 -144 -130
-385 -153 -551 -51 -162 99 -255 295 -225 475 26 150 127 291 252 350 199 94
393 62 548 -89 50 -49 58 -53 74 -41 18 13 17 17 -25 62 -114 124 -300 191
-457 164z"/>
<path d="M2215 1176 c-30 -14 -57 -35 -67 -54 -22 -37 -23 -110 -2 -140 20
-29 94 -66 164 -82 102 -24 138 -58 111 -109 -29 -54 -173 -43 -199 15 -10 20
-19 24 -56 24 -25 0 -47 -4 -51 -10 -10 -17 22 -77 56 -103 89 -67 242 -61
320 12 37 36 39 41 39 95 0 80 -26 105 -155 145 -118 37 -145 53 -145 86 0 38
33 65 80 65 50 0 85 -16 99 -46 9 -21 18 -24 61 -24 58 0 63 12 28 67 -47 78
-184 106 -283 59z"/>
<path d="M1544 1177 c-2 -7 -3 -120 -2 -252 l3 -240 45 0 45 0 3 158 c1 86 6
157 10 157 4 -1 28 -42 54 -93 44 -87 48 -92 81 -95 35 -3 35 -3 89 99 l53
102 5 -164 5 -164 43 -3 42 -3 0 255 0 256 -43 0 -43 0 -73 -135 c-40 -74 -74
-135 -76 -135 -2 0 -36 61 -77 135 l-73 135 -43 0 c-25 0 -45 -5 -48 -13z"/>
<path d="M2739 1163 c-6 -15 -21 -57 -34 -93 -36 -102 -111 -301 -128 -343
-19 -44 -12 -50 49 -45 36 3 39 6 53 51 l15 47 116 0 116 0 15 -47 c15 -48 15
-48 62 -51 59 -4 59 1 13 123 -37 96 -104 275 -127 340 l-15 40 -62 3 c-60 3
-63 2 -73 -25z m115 -179 c20 -56 36 -104 36 -108 0 -3 -36 -6 -80 -6 -44 0
-80 2 -80 4 0 9 62 181 72 199 5 10 11 17 13 15 1 -1 19 -49 39 -104z"/>
<path d="M284 886 c1 -20 26 -40 135 -107 73 -45 139 -82 145 -82 6 0 51 26
100 57 49 31 93 56 98 56 4 0 8 -85 8 -190 0 -183 1 -190 20 -190 19 0 20 7
20 236 l0 236 -22 -14 c-13 -8 -61 -38 -108 -67 -47 -29 -92 -57 -100 -63 -12
-8 -31 -1 -80 30 -76 48 -205 122 -213 122 -3 0 -4 -11 -3 -24z"/>
<path d="M924 886 c-3 -8 -4 -25 -2 -38 2 -19 10 -24 41 -26 l37 -3 0 40 c0
40 -1 41 -35 41 -22 0 -38 -6 -41 -14z m66 -26 c0 -27 -3 -30 -30 -30 -27 0
-30 3 -30 30 0 27 3 30 30 30 27 0 30 -3 30 -30z"/>
<path d="M290 616 c0 -169 1 -176 20 -176 19 0 20 7 20 130 0 72 4 130 9 130
5 0 55 -27 111 -60 56 -33 104 -60 106 -60 3 0 4 12 2 27 -2 23 -20 37 -103
86 -55 33 -115 68 -132 79 l-33 20 0 -176z"/>
<path d="M1197 783 c-3 -4 15 -6 40 -4 l44 3 -3 -43 -3 -44 -42 0 c-22 0 -39
-3 -36 -7 6 -11 65 -10 81 1 9 5 12 24 10 52 -3 44 -3 44 -45 47 -22 2 -43 -1
-46 -5z"/>
<path d="M994 766 c-3 -7 -4 -38 -2 -67 l3 -54 60 0 60 0 3 68 3 67 -61 0
c-42 0 -62 -4 -66 -14z m114 -53 l3 -53 -55 0 -56 0 0 48 c0 27 3 52 7 56 4 4
28 6 53 4 l45 -3 3 -52z"/>
<path d="M1002 588 c-7 -7 -12 -41 -12 -84 0 -94 9 -104 100 -104 89 0 100 10
100 96 0 98 -6 104 -98 104 -47 0 -83 -5 -90 -12z m166 -67 c2 -30 1 -65 -3
-78 -5 -23 -9 -24 -78 -21 l-72 3 -3 64 c-4 92 -4 92 80 89 l73 -3 3 -54z"/>
<path d="M1574 462 c-41 -26 -64 -78 -64 -144 0 -69 25 -117 76 -143 21 -11
43 -26 48 -34 19 -31 47 -50 80 -57 49 -9 65 -1 59 29 -4 18 -10 23 -26 20
-12 -2 -31 2 -41 10 -18 13 -17 15 20 33 52 26 75 68 75 142 1 63 -15 104 -51
137 -32 29 -135 33 -176 7z m143 -58 c23 -23 25 -31 21 -91 -5 -75 -27 -103
-82 -103 -59 0 -96 66 -82 145 14 73 92 100 143 49z"/>
<path d="M1928 464 c-89 -48 -88 -243 1 -288 42 -22 119 -20 158 3 40 25 52
59 27 78 -23 17 -34 17 -34 -1 0 -22 -40 -46 -75 -46 -52 0 -80 39 -80 110 0
48 4 63 24 84 30 32 78 34 114 5 21 -16 31 -18 47 -9 27 15 25 24 -11 54 -25
21 -40 26 -87 26 -31 -1 -69 -8 -84 -16z"/>
<path d="M2190 320 l0 -160 30 0 30 0 0 60 0 60 45 0 c57 0 93 17 111 51 17
34 18 60 2 94 -18 40 -57 55 -143 55 l-75 0 0 -160z m149 101 c8 -5 14 -24 14
-41 0 -38 -15 -50 -65 -50 l-38 0 0 50 0 50 38 0 c20 0 43 -4 51 -9z"/>
<path d="M2480 320 l0 -160 30 0 30 0 0 65 0 65 34 0 c40 0 48 -9 70 -77 16
-48 20 -53 47 -53 16 0 29 4 29 8 0 22 -35 109 -50 125 -16 18 -16 20 11 47
31 31 36 55 18 93 -16 36 -50 47 -139 47 l-80 0 0 -160z m158 98 c19 -19 14
-56 -8 -68 -12 -6 -35 -10 -53 -8 -30 3 -32 6 -35 46 l-3 42 43 0 c24 0 49 -5
56 -12z"/>
<path d="M2845 470 c-88 -36 -109 -204 -35 -275 38 -37 128 -47 179 -20 91 46
92 243 2 289 -32 17 -113 20 -146 6z m126 -66 c19 -21 24 -36 24 -84 0 -48 -5
-63 -24 -84 -33 -35 -83 -35 -116 -1 -21 20 -25 34 -25 85 0 51 4 65 25 85 33
34 83 34 116 -1z"/>
</g>
</svg>
